<?xml version="1.0" encoding="utf-8"?>
<!-- Generator: Adobe Illustrator 16.0.0, SVG Export Plug-In . SVG Version: 6.00 Build 0)  -->
<!DOCTYPE svg PUBLIC "-//W3C//DTD SVG 1.1//EN" "http://www.w3.org/Graphics/SVG/1.1/DTD/svg11.dtd">
<svg version="1.1" id="Layer_1" xmlns="http://www.w3.org/2000/svg" xmlns:xlink="http://www.w3.org/1999/xlink" x="0px" y="0px"
	 width="18px" height="18px" viewBox="0 0 18 18" enable-background="new 0 0 18 18" xml:space="preserve">
<path fill="#F7F9F8" d="M10.955,9.041l4.107-4.106c0.586-0.586,0.586-1.535,0-2.121s-1.535-0.586-2.121,0L8.834,6.92L4.728,2.813
	c-0.586-0.586-1.535-0.586-2.121,0s-0.586,1.535,0,2.121l4.106,4.106l-4.106,4.106c-0.586,0.586-0.586,1.535,0,2.121
	c0.293,0.293,0.677,0.439,1.061,0.439s0.768-0.146,1.061-0.439l4.106-4.106l4.106,4.106c0.293,0.293,0.677,0.439,1.061,0.439
	s0.768-0.146,1.061-0.439c0.586-0.586,0.586-1.535,0-2.121L10.955,9.041z"/>
</svg>
