<?xml version="1.0" encoding="utf-8"?>
<!-- Generator: Adobe Illustrator 16.0.0, SVG Export Plug-In . SVG Version: 6.00 Build 0)  -->
<!DOCTYPE svg PUBLIC "-//W3C//DTD SVG 1.1//EN" "http://www.w3.org/Graphics/SVG/1.1/DTD/svg11.dtd">
<svg version="1.1" id="Layer_1" xmlns="http://www.w3.org/2000/svg" xmlns:xlink="http://www.w3.org/1999/xlink" x="0px" y="0px"
	 width="14.4px" height="14.4px" viewBox="0 0 14.4 14.4" enable-background="new 0 0 14.4 14.4" xml:space="preserve">
<path fill="#707071" d="M11.908,10.533L8.531,7.157l3.376-3.376c0.391-0.391,0.391-1.023,0-1.414s-1.023-0.391-1.414,0L7.117,5.743
	L3.741,2.367c-0.391-0.391-1.023-0.391-1.414,0s-0.391,1.023,0,1.414l3.376,3.376l-3.376,3.376c-0.391,0.391-0.391,1.023,0,1.414
	c0.195,0.195,0.451,0.293,0.707,0.293s0.512-0.098,0.707-0.293l3.376-3.376l3.376,3.376c0.195,0.195,0.451,0.293,0.707,0.293
	s0.512-0.098,0.707-0.293C12.298,11.557,12.298,10.924,11.908,10.533z"/>
</svg>
