<?xml version="1.0" encoding="utf-8"?>
<!-- Generator: Adobe Illustrator 16.0.0, SVG Export Plug-In . SVG Version: 6.00 Build 0)  -->
<!DOCTYPE svg PUBLIC "-//W3C//DTD SVG 1.1//EN" "http://www.w3.org/Graphics/SVG/1.1/DTD/svg11.dtd">
<svg version="1.1" id="Layer_1" xmlns="http://www.w3.org/2000/svg" xmlns:xlink="http://www.w3.org/1999/xlink" x="0px" y="0px"
	 width="18px" height="18px" viewBox="0 0 18 18" enable-background="new 0 0 18 18" xml:space="preserve">
<g>
	
		<rect x="6.374" y="4.66" transform="matrix(0.9591 -0.2831 0.2831 0.9591 -2.5115 2.3207)" fill="#EF4523" width="0.8" height="10.381"/>
	<path fill="#EF4523" d="M9.992,4.9c-0.033-0.125-0.059-0.244-0.064-0.35C9.84,3.373,5.508,4.695,5.359,5.105
		c0.049,0.082-0.002,0.188,0.043,0.27c0.996,1.834,1.291,3.639,1.369,4.424c0.025,0.26,0.127,0.387,0.127,0.387
		S8.209,7.193,11.1,7.986c1.715,0.398,1.705-1.682,2.072-4.068C13.172,3.918,10.986,5.211,9.992,4.9z"/>
</g>
</svg>
