<?xml version="1.0" encoding="utf-8"?>
<!-- Generator: Adobe Illustrator 16.0.0, SVG Export Plug-In . SVG Version: 6.00 Build 0)  -->
<!DOCTYPE svg PUBLIC "-//W3C//DTD SVG 1.1//EN" "http://www.w3.org/Graphics/SVG/1.1/DTD/svg11.dtd">
<svg version="1.1" id="Layer_1" xmlns="http://www.w3.org/2000/svg" xmlns:xlink="http://www.w3.org/1999/xlink" x="0px" y="0px"
	 width="18px" height="18px" viewBox="0 0 18 18" enable-background="new 0 0 18 18" xml:space="preserve">
<path fill="#F6891F" d="M9.919,14.224c0,0.688-0.304,1.033-0.993,1.033H8.412c-0.688,0-0.993-0.345-0.993-1.033v-0.196
	c0-0.688,0.327-1.307,1.015-1.307h0.471c0.688,0,1.014,0.618,1.014,1.307V14.224z M10.195,3.341L9.591,9.904
	c-0.036,0.635-0.181,0.887-0.924,0.887c-0.743,0-0.888-0.252-0.924-0.887L7.147,3.341C7.092,2.472,7.165,2,7.944,2h1.473
	C10.195,2,10.232,2.472,10.195,3.341z"/>
</svg>
