<?xml version="1.0" encoding="utf-8"?>
<!-- Generator: Adobe Illustrator 16.0.0, SVG Export Plug-In . SVG Version: 6.00 Build 0)  -->
<!DOCTYPE svg PUBLIC "-//W3C//DTD SVG 1.1//EN" "http://www.w3.org/Graphics/SVG/1.1/DTD/svg11.dtd">
<svg version="1.1" id="Layer_1" xmlns="http://www.w3.org/2000/svg" xmlns:xlink="http://www.w3.org/1999/xlink" x="0px" y="0px"
	 width="25.921px" height="25.75px" viewBox="0 0 25.921 25.75" enable-background="new 0 0 25.921 25.75" xml:space="preserve">
<g>
	<g>
		<path fill="#425C77" d="M17.94,6.776c-0.636-0.471-1.33-0.743-2.068-0.814l-9.058,10.84l-1.458,5.251l0.812-0.002l4.407-2.798
			l8.901-10.811C19.175,7.863,18.669,7.317,17.94,6.776z M6.628,20.788L7.744,17.2l2.073,1.435L6.628,20.788z"/>
		<path fill="#425C77" d="M19.526,2.474c-1.203,0.19-1.96,1.459-1.944,1.459L17.003,4.62c0.693,0.169,1.498,0.501,2.347,1.119
			c0.537,0.391,0.945,0.866,1.245,1.364l0.652-0.782c-0.003,0.002,0.697-0.971,0.785-1.609C22.211,3.393,20.654,2.296,19.526,2.474z
			"/>
	</g>
</g>
</svg>
