<?xml version="1.0" encoding="utf-8"?>
<!-- Generator: Adobe Illustrator 16.0.0, SVG Export Plug-In . SVG Version: 6.00 Build 0)  -->
<!DOCTYPE svg PUBLIC "-//W3C//DTD SVG 1.1//EN" "http://www.w3.org/Graphics/SVG/1.1/DTD/svg11.dtd">
<svg version="1.1" id="Layer_1" xmlns="http://www.w3.org/2000/svg" xmlns:xlink="http://www.w3.org/1999/xlink" x="0px" y="0px"
	 width="27.085px" height="36.166px" viewBox="0 0 27.085 36.166" enable-background="new 0 0 27.085 36.166" xml:space="preserve">
<path fill="#BABABA" d="M23.141,25.521l-6.157-6.156c0.918-1.259,1.467-2.808,1.467-4.48c0-4.208-3.424-7.632-7.632-7.632
	c-4.209,0-7.633,3.424-7.633,7.632c0,4.209,3.424,7.631,7.633,7.631c1.419,0,2.746-0.396,3.884-1.073l6.259,6.257
	c0.302,0.299,0.695,0.454,1.09,0.454s0.788-0.155,1.09-0.454C23.74,27.097,23.74,26.123,23.141,25.521z M6.267,14.885
	c0-2.513,2.042-4.555,4.552-4.555s4.55,2.042,4.55,4.555c0,1.077,0.016,2.156-1.007,3.265c-1.025,1.109-2.657,1.287-3.543,1.287
	C8.309,19.437,6.267,17.396,6.267,14.885z"/>
</svg>
